 <svg width="23" height="29" viewBox="0 0 23 29" fill="none" xmlns="http://www.w3.org/2000/svg">
<path d="M19.8636 17.806V21.9151H23V24.6544H19.8636V28.7635H17.7727V24.6544H14.6364V21.9151H17.7727V17.806H19.8636ZM11.5 15.0666C10.35 15.0666 9.40909 16.2993 9.40909 17.806C9.40909 19.3126 10.35 20.5454 11.5 20.5454C12.65 20.5454 13.5909 19.3126 13.5909 17.806C13.5909 16.2993 12.65 15.0666 11.5 15.0666ZM12.9114 26.0241H4.70455C3.74273 26.0241 2.93773 25.1749 2.69727 24.0244L0.0418181 11.3273C-3.72529e-08 11.2041 0 11.0808 0 10.9575C0 10.2042 0.470455 9.58784 1.04545 9.58784H6.05318L10.6323 0.616361C10.8309 0.219151 11.1655 0 11.5 0C11.8345 0 12.1691 0.219151 12.3677 0.602664L16.9468 9.58784H21.9545C22.5295 9.58784 23 10.2042 23 10.9575L22.9686 11.3273L21.9545 16.1761C21.3586 15.7514 20.6895 15.3953 19.9891 15.2173L20.5955 12.3272H2.415L4.70455 23.2847H12.5455C12.5455 24.2435 12.6814 25.1612 12.9114 26.0241ZM8.57273 9.58784H14.4273L11.5 3.83514L8.57273 9.58784Z" fill="#495E57"/>
</svg>
